<?xml version="1.0" encoding="utf-8"?>
<!-- Generator: Adobe Illustrator 24.3.0, SVG Export Plug-In . SVG Version: 6.00 Build 0)  -->
<svg version="1.1" id="Layer_1" xmlns="http://www.w3.org/2000/svg" xmlns:xlink="http://www.w3.org/1999/xlink" x="0px" y="0px"
	 viewBox="0 0 331.1 241.1" style="enable-background:new 0 0 331.1 241.1;" xml:space="preserve">
<style type="text/css">
	.st0{fill:#0062AD;stroke:#1354A2;}
	.st1{fill:#008BD0;stroke:#007BC3;}
	.st2{fill:#009C3E;stroke:#00933E;}
	.st3{fill:#E96A36;stroke:#D2321D;}
	.st4{fill:#FDFDFE;stroke:#D2321D;}
	.st5{font-family:'TimesNewRomanPSMT';}
	.st6{font-size:36.8575px;}
</style>
<path class="st0" d="M63.4,207.2c0,0,24.7,16.2,46.9,20.5c0,0,37.5,11.1,69.1-2.6c0,0-55.4,38.4-123.6-3.4c0,0-44.3-31.5-54.6-86.1
	c0,0-18.8-99.7,94.6-135.5c0,0-45.2,16.2-65.6,75.9c0,0-14.5,47.7,24.7,91.2c0,0,18.8,29,57.1,37.5c0,0,46,4.3,74.2-12.8
	c0,0-42.6,40.1-93.8,21.3c0,0-48.6-23-59.7-46.9C32.7,166.2,46.3,201.2,63.4,207.2z"/>
<path class="st1" d="M197.2,32.4c0,0-25.6-24.7-67.3-26.4c0,0-44.3-4.3-78.4,46c0,0-36.7,63.1,17.9,117.6c0,0-45.2-80.1,6.8-124.5
	c0,0-54.6,66.5,20.5,124.5l3.4,0.9c0,0-49.4-54.6-17.9-106.6C82.1,63.9,128.2-2.6,197.2,32.4z"/>
<path class="st2" d="M214.3,79.3h10.2c0,0-5.1-40.9-53.7-50.3c0,0-97.2-8.5-85.3,86.1c0,0,0.9-42.6,40.9-67.3
	c0,0-47.7,37.5-21.3,79.3c0,0-7.7-75,54.6-77.6C159.7,49.4,193,37.5,214.3,79.3z"/>
<path class="st3" d="M123.9,80.1l6.8,6.8v84.4l-8.5,10.2l44.3-0.9c0,0,29-7.7,29.8-43.5c0,0,7.7-46-34.1-56.3L123.9,80.1z"/>
<path class="st4" d="M143.5,84.4l0.9,90.4l4.3,0.9V92.1c0,0,11.1-5.1,20.5,2.6c0,0-13.6-3.4-17,0.9v78.4c0,0,17.9,5.1,26.4-19.6
	c0,0,7.7-40.9-2.6-53.7c0,0-10.2-18.8-29.8-12.8L143.5,84.4z"/>
<path class="st3" d="M163.1,187.6c0,0,26.4,0,35-24.7c0,0,10.2-18.8,5.1-51.1c0,0-4.3-16.2-14.5-21.3c0,0,14.5,21.3,11.9,41.8
	c0,0,0.9,29-11.9,40.9c0,0,6.8,4.3-25.6,11.1c0,0-21.3,0.9-37.5,0.9l-1.7,2.6H163.1z"/>
<text transform="matrix(0.7715 0 0 1 191.2624 217.4619)" class="st5 st6">Service Fast</text>
<path class="st3" d="M209.2,80.1l9.4,8.5l1.7,82.7l-10.2,9.4h71.6c0,0-6.8-12.8-11.1-29.8c0,0-2.6,29.8-30.7,24.7L239,92.1l6.8-7.7
	l-9.4,6.8v81.8l-3.4,0.9l1.1-82.7l9.1-10.8L209.2,80.1z"/>
<polygon class="st3" points="289.9,181.6 321.7,181.6 313.7,173.3 313.5,90.9 322.8,80.1 289.9,79.9 299,89.8 299.2,172.2 "/>
<polygon class="st3" points="326,83.8 325.7,86.1 320,91.8 319.7,173.3 330.2,187.3 330.2,188.4 293.6,188.1 292.7,185.8 326,185.3 
	326,184.1 316.9,173.9 316.9,91.2 324.8,82.7 "/>
<path class="st3" d="M276.2,156.3l2,0.3l11.6,23.3l-1.7,7.7l-75.6,0.3v-2.3l74.5-0.3l0.9-4.8C287.9,180.4,276.2,160.3,276.2,156.3z"
	/>
</svg>
