<?xml version="1.0" encoding="UTF-8"?>
<!DOCTYPE svg PUBLIC "-//W3C//DTD SVG 1.1//EN" "http://www.w3.org/Graphics/SVG/1.1/DTD/svg11.dtd">
<svg xmlns="http://www.w3.org/2000/svg" version="1.1" width="230px" height="235px" style="shape-rendering:geometricPrecision; text-rendering:geometricPrecision; image-rendering:optimizeQuality; fill-rule:evenodd; clip-rule:evenodd" xmlns:xlink="http://www.w3.org/1999/xlink">
<g><path style="opacity:0.792" fill="#5b5a5b" d="M 20.5,-0.5 C 82.5,-0.5 144.5,-0.5 206.5,-0.5C 206.889,36.8503 206.389,74.1836 205,111.5C 196.765,168.22 166.265,207.553 113.5,229.5C 54.7266,204.332 23.8932,159.666 21,95.5C 20.5,63.5017 20.3334,31.5017 20.5,-0.5 Z M 197.5,121.5 C 199.981,103.257 200.981,84.9238 200.5,66.5C 200.5,65.5 200.5,64.5 200.5,63.5C 200.5,61.1667 200.5,58.8333 200.5,56.5C 200.5,55.1667 200.5,53.8333 200.5,52.5C 200.5,50.1667 200.5,47.8333 200.5,45.5C 200.5,44.1667 200.5,42.8333 200.5,41.5C 200.5,36.1667 200.5,30.8333 200.5,25.5C 200.5,24.8333 200.5,24.1667 200.5,23.5C 200.5,23.1667 200.5,22.8333 200.5,22.5C 200.5,21.8333 200.5,21.1667 200.5,20.5C 200.5,19.1667 200.5,17.8333 200.5,16.5C 200.5,15.5 200.5,14.5 200.5,13.5C 200.5,12.5 200.5,11.5 200.5,10.5C 200.5,8.83333 200.5,7.16667 200.5,5.5C 142.832,5.33334 85.1657,5.50001 27.5,6C 26.6198,7.35613 26.2865,8.85613 26.5,10.5C 26.5,10.8333 26.5,11.1667 26.5,11.5C 26.5,12.1667 26.5,12.8333 26.5,13.5C 26.5,14.5 26.5,15.5 26.5,16.5C 26.5,17.8333 26.5,19.1667 26.5,20.5C 26.5,21.5 26.5,22.5 26.5,23.5C 26.5,24.1667 26.5,24.8333 26.5,25.5C 26.5,30.8333 26.5,36.1667 26.5,41.5C 26.5,42.8333 26.5,44.1667 26.5,45.5C 26.5,47.8333 26.5,50.1667 26.5,52.5C 26.5,53.8333 26.5,55.1667 26.5,56.5C 26.5,58.8333 26.5,61.1667 26.5,63.5C 26.5,64.5 26.5,65.5 26.5,66.5C 25.1629,61.5486 24.8295,40.5486 25.5,3.5C 84.1667,3.5 142.833,3.5 201.5,3.5C 201.667,36.1684 201.5,68.835 201,101.5C 200.371,108.405 199.205,115.072 197.5,121.5 Z M 26.5,97.5 C 27.8225,107.039 29.1558,116.705 30.5,126.5C 27.719,117.171 26.3857,107.504 26.5,97.5 Z M 156.5,196.5 C 156.027,197.906 155.027,198.573 153.5,198.5C 153.973,197.094 154.973,196.427 156.5,196.5 Z M 74.5,199.5 C 75.8333,199.5 76.5,200.167 76.5,201.5C 75.5,201.167 74.8333,200.5 74.5,199.5 Z M 141.5,207.5 C 141.167,208.5 140.5,209.167 139.5,209.5C 139.5,208.167 140.167,207.5 141.5,207.5 Z M 133.5,212.5 C 132.994,214.105 132.327,214.439 131.5,213.5C 131.842,212.662 132.508,212.328 133.5,212.5 Z M 100.5,216.5 C 102.153,216.66 103.486,217.326 104.5,218.5C 102.62,218.771 101.287,218.104 100.5,216.5 Z M 126.5,216.5 C 125.713,218.104 124.38,218.771 122.5,218.5C 123.514,217.326 124.847,216.66 126.5,216.5 Z M 121.5,219.5 C 120.22,220.931 118.553,221.598 116.5,221.5C 117.78,220.069 119.447,219.402 121.5,219.5 Z M 110.5,221.5 C 112.5,221.5 114.5,221.5 116.5,221.5C 114.406,223.994 112.406,223.994 110.5,221.5 Z"/></g>
<g><path style="opacity:0.998" fill="#066b35" d="M 200.5,10.5 C 142.5,10.5 84.5,10.5 26.5,10.5C 26.2865,8.85613 26.6198,7.35613 27.5,6C 85.1657,5.50001 142.832,5.33334 200.5,5.5C 200.5,7.16667 200.5,8.83333 200.5,10.5 Z"/></g>
<g><path style="opacity:1" fill="#85aa89" d="M 26.5,11.5 C 26.5,11.1667 26.5,10.8333 26.5,10.5C 84.5,10.5 142.5,10.5 200.5,10.5C 200.5,11.5 200.5,12.5 200.5,13.5C 200.167,13.5 199.833,13.5 199.5,13.5C 142.176,11.504 84.5097,10.8373 26.5,11.5 Z"/></g>
<g><path style="opacity:1" fill="#dce6dc" d="M 26.5,11.5 C 84.5097,10.8373 142.176,11.504 199.5,13.5C 141.833,13.5 84.1667,13.5 26.5,13.5C 26.5,12.8333 26.5,12.1667 26.5,11.5 Z"/></g>
<g><path style="opacity:0.998" fill="#0f6e38" d="M 26.5,13.5 C 84.1667,13.5 141.833,13.5 199.5,13.5C 199.833,13.5 200.167,13.5 200.5,13.5C 200.5,14.5 200.5,15.5 200.5,16.5C 142.5,16.5 84.5,16.5 26.5,16.5C 26.5,15.5 26.5,14.5 26.5,13.5 Z"/></g>
<g><path style="opacity:1" fill="#93bea6" d="M 26.5,16.5 C 84.5,16.5 142.5,16.5 200.5,16.5C 200.5,17.8333 200.5,19.1667 200.5,20.5C 200.167,20.5 199.833,20.5 199.5,20.5C 199.737,19.209 199.404,18.209 198.5,17.5C 141.496,17.1667 84.4961,17.5 27.5,18.5C 27.6236,19.1067 27.9569,19.44 28.5,19.5C 28.5,19.8333 28.5,20.1667 28.5,20.5C 28.1667,20.5 27.8333,20.5 27.5,20.5C 27.1667,20.5 26.8333,20.5 26.5,20.5C 26.5,19.1667 26.5,17.8333 26.5,16.5 Z"/></g>
<g><path style="opacity:1" fill="#fefefe" d="M 198.5,17.5 C 142.176,19.496 85.5098,20.1626 28.5,19.5C 27.9569,19.44 27.6236,19.1067 27.5,18.5C 84.4961,17.5 141.496,17.1667 198.5,17.5 Z"/></g>
<g><path style="opacity:1" fill="#ccd8c8" d="M 198.5,17.5 C 199.404,18.209 199.737,19.209 199.5,20.5C 142.5,20.5 85.5,20.5 28.5,20.5C 28.5,20.1667 28.5,19.8333 28.5,19.5C 85.5098,20.1626 142.176,19.496 198.5,17.5 Z"/></g>
<g><path style="opacity:0.998" fill="#106f3a" d="M 27.5,20.5 C 27.8333,20.5 28.1667,20.5 28.5,20.5C 85.5,20.5 142.5,20.5 199.5,20.5C 199.833,20.5 200.167,20.5 200.5,20.5C 200.5,21.1667 200.5,21.8333 200.5,22.5C 142.49,23.1627 84.8237,22.496 27.5,20.5 Z"/></g>
<g><path style="opacity:1" fill="#468d63" d="M 26.5,20.5 C 26.8333,20.5 27.1667,20.5 27.5,20.5C 84.8237,22.496 142.49,23.1627 200.5,22.5C 200.5,22.8333 200.5,23.1667 200.5,23.5C 142.5,23.5 84.5,23.5 26.5,23.5C 26.5,22.5 26.5,21.5 26.5,20.5 Z"/></g>
<g><path style="opacity:1" fill="#f9faf8" d="M 26.5,23.5 C 84.5,23.5 142.5,23.5 200.5,23.5C 200.5,24.1667 200.5,24.8333 200.5,25.5C 142.5,25.5 84.5,25.5 26.5,25.5C 26.5,24.8333 26.5,24.1667 26.5,23.5 Z"/></g>
<g><path style="opacity:0.996" fill="#0c6d37" d="M 26.5,25.5 C 84.5,25.5 142.5,25.5 200.5,25.5C 200.5,30.8333 200.5,36.1667 200.5,41.5C 185.657,41.1707 170.99,41.504 156.5,42.5C 156.5,43.5 156.5,44.5 156.5,45.5C 158.5,45.5 160.5,45.5 162.5,45.5C 162.5,47.8333 162.5,50.1667 162.5,52.5C 160.5,52.5 158.5,52.5 156.5,52.5C 156.5,53.5 156.5,54.5 156.5,55.5C 160.634,56.4849 164.968,56.8182 169.5,56.5C 169.5,58.8333 169.5,61.1667 169.5,63.5C 165.167,63.5 160.833,63.5 156.5,63.5C 156.5,64.5 156.5,65.5 156.5,66.5C 171.167,66.5 185.833,66.5 200.5,66.5C 200.981,84.9238 199.981,103.257 197.5,121.5C 197.5,122.167 197.5,122.833 197.5,123.5C 196.596,124.209 196.263,125.209 196.5,126.5C 195.549,127.919 195.216,129.585 195.5,131.5C 194.596,132.209 194.263,133.209 194.5,134.5C 193.566,135.568 193.232,136.901 193.5,138.5C 192.262,140.214 191.595,142.214 191.5,144.5C 190.596,145.209 190.263,146.209 190.5,147.5C 189.662,147.842 189.328,148.508 189.5,149.5C 188.662,149.842 188.328,150.508 188.5,151.5C 187.596,152.209 187.263,153.209 187.5,154.5C 186.662,154.842 186.328,155.508 186.5,156.5C 185.662,156.842 185.328,157.508 185.5,158.5C 184.662,158.842 184.328,159.508 184.5,160.5C 183.662,160.842 183.328,161.508 183.5,162.5C 182.662,162.842 182.328,163.508 182.5,164.5C 181.833,164.5 181.5,164.833 181.5,165.5C 180.662,165.842 180.328,166.508 180.5,167.5C 179.662,167.842 179.328,168.508 179.5,169.5C 178.833,169.5 178.5,169.833 178.5,170.5C 177.662,170.842 177.328,171.508 177.5,172.5C 176.833,172.5 176.5,172.833 176.5,173.5C 175.662,173.842 175.328,174.508 175.5,175.5C 174.833,175.5 174.5,175.833 174.5,176.5C 173.833,176.5 173.5,176.833 173.5,177.5C 172.662,177.842 172.328,178.508 172.5,179.5C 171.833,179.5 171.5,179.833 171.5,180.5C 170.833,180.5 170.5,180.833 170.5,181.5C 169.833,181.5 169.5,181.833 169.5,182.5C 168.662,182.842 168.328,183.508 168.5,184.5C 167.833,184.5 167.5,184.833 167.5,185.5C 166.833,185.5 166.5,185.833 166.5,186.5C 165.833,186.5 165.5,186.833 165.5,187.5C 164.833,187.5 164.5,187.833 164.5,188.5C 163.833,188.5 163.5,188.833 163.5,189.5C 162.833,189.5 162.5,189.833 162.5,190.5C 161.833,190.5 161.5,190.833 161.5,191.5C 160.833,191.5 160.5,191.833 160.5,192.5C 159.833,192.5 159.5,192.833 159.5,193.5C 158.833,193.5 158.5,193.833 158.5,194.5C 157.833,194.5 157.5,194.833 157.5,195.5C 156.833,195.5 156.5,195.833 156.5,196.5C 154.973,196.427 153.973,197.094 153.5,198.5C 152.833,198.5 152.5,198.833 152.5,199.5C 151.833,199.5 151.5,199.833 151.5,200.5C 150.833,200.5 150.5,200.833 150.5,201.5C 149.508,201.328 148.842,201.662 148.5,202.5C 147.833,202.5 147.5,202.833 147.5,203.5C 146.833,203.5 146.5,203.833 146.5,204.5C 145.508,204.328 144.842,204.662 144.5,205.5C 143.833,205.5 143.5,205.833 143.5,206.5C 142.508,206.328 141.842,206.662 141.5,207.5C 140.167,207.5 139.5,208.167 139.5,209.5C 138.508,209.328 137.842,209.662 137.5,210.5C 136.508,210.328 135.842,210.662 135.5,211.5C 134.833,211.5 134.5,211.833 134.5,212.5C 134.167,212.5 133.833,212.5 133.5,212.5C 132.508,212.328 131.842,212.662 131.5,213.5C 130.833,213.5 130.5,213.833 130.5,214.5C 129.508,214.328 128.842,214.662 128.5,215.5C 127.833,215.5 127.5,215.833 127.5,216.5C 127.167,216.5 126.833,216.5 126.5,216.5C 124.847,216.66 123.514,217.326 122.5,218.5C 121.833,218.5 121.5,218.833 121.5,219.5C 119.447,219.402 117.78,220.069 116.5,221.5C 114.5,221.5 112.5,221.5 110.5,221.5C 110.158,220.662 109.492,220.328 108.5,220.5C 107.791,219.596 106.791,219.263 105.5,219.5C 105.5,218.833 105.167,218.5 104.5,218.5C 103.486,217.326 102.153,216.66 100.5,216.5C 100.167,216.5 99.8333,216.5 99.5,216.5C 99.5,215.833 99.1667,215.5 98.5,215.5C 98.1583,214.662 97.4916,214.328 96.5,214.5C 96.5,213.833 96.1667,213.5 95.5,213.5C 94.791,212.596 93.791,212.263 92.5,212.5C 92.5,211.833 92.1667,211.5 91.5,211.5C 91.5,210.833 91.1667,210.5 90.5,210.5C 90.1583,209.662 89.4916,209.328 88.5,209.5C 88.1583,208.662 87.4916,208.328 86.5,208.5C 86.1583,207.662 85.4916,207.328 84.5,207.5C 84.5,206.833 84.1667,206.5 83.5,206.5C 83.5,205.833 83.1667,205.5 82.5,205.5C 82.1583,204.662 81.4916,204.328 80.5,204.5C 80.5,203.833 80.1667,203.5 79.5,203.5C 79.5,202.833 79.1667,202.5 78.5,202.5C 78.1583,201.662 77.4916,201.328 76.5,201.5C 76.5,200.167 75.8333,199.5 74.5,199.5C 74.5,198.833 74.1667,198.5 73.5,198.5C 73.1583,197.662 72.4916,197.328 71.5,197.5C 71.5,196.167 70.8333,195.5 69.5,195.5C 69.5,194.833 69.1667,194.5 68.5,194.5C 68.5,193.833 68.1667,193.5 67.5,193.5C 67.5,192.833 67.1667,192.5 66.5,192.5C 66.5,191.833 66.1667,191.5 65.5,191.5C 65.5,190.833 65.1667,190.5 64.5,190.5C 64.5,189.833 64.1667,189.5 63.5,189.5C 63.5,188.167 62.8333,187.5 61.5,187.5C 61.5,186.833 61.1667,186.5 60.5,186.5C 59.8776,184.878 58.8776,183.545 57.5,182.5C 57.5,181.833 57.1667,181.5 56.5,181.5C 56.5,180.833 56.1667,180.5 55.5,180.5C 55.5,179.833 55.1667,179.5 54.5,179.5C 54.6716,178.508 54.3382,177.842 53.5,177.5C 53.5,176.833 53.1667,176.5 52.5,176.5C 52.5,175.833 52.1667,175.5 51.5,175.5C 51.6716,174.508 51.3382,173.842 50.5,173.5C 50.6716,172.508 50.3382,171.842 49.5,171.5C 49.5,170.833 49.1667,170.5 48.5,170.5C 48.6716,169.508 48.3382,168.842 47.5,168.5C 47.5,167.833 47.1667,167.5 46.5,167.5C 46.6716,166.508 46.3382,165.842 45.5,165.5C 45.6716,164.508 45.3382,163.842 44.5,163.5C 44.5,162.833 44.1667,162.5 43.5,162.5C 43.7373,161.209 43.404,160.209 42.5,159.5C 42.5,158.833 42.1667,158.5 41.5,158.5C 41.6716,157.508 41.3382,156.842 40.5,156.5C 40.7373,155.209 40.404,154.209 39.5,153.5C 39.6716,152.508 39.3382,151.842 38.5,151.5C 38.6716,150.508 38.3382,149.842 37.5,149.5C 37.5979,147.447 36.9313,145.78 35.5,144.5C 35.7678,142.901 35.4345,141.568 34.5,140.5C 34.6716,139.508 34.3382,138.842 33.5,138.5C 33.7678,136.901 33.4345,135.568 32.5,134.5C 32.7373,133.209 32.404,132.209 31.5,131.5C 31.7845,129.585 31.4511,127.919 30.5,126.5C 29.1558,116.705 27.8225,107.039 26.5,97.5C 27.3707,87.1938 27.704,76.8605 27.5,66.5C 42.1667,66.5 56.8333,66.5 71.5,66.5C 71.5,65.5 71.5,64.5 71.5,63.5C 67.5,63.5 63.5,63.5 59.5,63.5C 59.5,60.8333 59.5,58.1667 59.5,55.5C 63.1667,55.5 66.8333,55.5 70.5,55.5C 71.404,54.791 71.7373,53.791 71.5,52.5C 69.8333,52.5 68.1667,52.5 66.5,52.5C 66.5,50.1667 66.5,47.8333 66.5,45.5C 68.1667,45.5 69.8333,45.5 71.5,45.5C 71.5,44.1667 71.5,42.8333 71.5,41.5C 56.5,41.5 41.5,41.5 26.5,41.5C 26.5,36.1667 26.5,30.8333 26.5,25.5 Z"/></g>
<g><path style="opacity:1" fill="#f2f5f1" d="M 82.5,41.5 C 88.1584,40.6732 93.1584,42.0066 97.5,45.5C 96.8333,46.8333 95.8333,47.8333 94.5,48.5C 87.3876,43.4155 82.3876,44.9155 79.5,53C 81.8324,61.3444 86.499,63.1777 93.5,58.5C 91.604,57.5344 89.604,57.2011 87.5,57.5C 87.5,56.1667 87.5,54.8333 87.5,53.5C 91.5,53.5 95.5,53.5 99.5,53.5C 99.0654,61.3589 94.8987,65.3589 87,65.5C 77.5993,63.7238 73.9326,58.0572 76,48.5C 77.6941,45.6424 79.8607,43.309 82.5,41.5 Z"/></g>
<g><path style="opacity:1" fill="#f1f5f1" d="M 122.5,41.5 C 128.391,40.4041 133.391,41.9041 137.5,46C 136.646,47.0217 135.646,47.8551 134.5,48.5C 127.388,43.4155 122.388,44.9155 119.5,53C 121.897,61.9543 126.897,63.7877 134.5,58.5C 137.619,59.6936 137.952,61.1936 135.5,63C 121.528,68.2617 115.028,63.4283 116,48.5C 117.694,45.6424 119.861,43.309 122.5,41.5 Z"/></g>
<g><path style="opacity:1" fill="#e8efe9" d="M 100.5,41.5 C 104.833,41.5 109.167,41.5 113.5,41.5C 113.5,43.1667 113.5,44.8333 113.5,46.5C 112.167,46.5 110.833,46.5 109.5,46.5C 109.5,52.8333 109.5,59.1667 109.5,65.5C 107.833,65.5 106.167,65.5 104.5,65.5C 104.5,59.1667 104.5,52.8333 104.5,46.5C 103.167,46.5 101.833,46.5 100.5,46.5C 100.5,44.8333 100.5,43.1667 100.5,41.5 Z"/></g>
<g><path style="opacity:1" fill="#f0f4f0" d="M 141.5,41.5 C 142.833,41.5 144.167,41.5 145.5,41.5C 145.5,47.8333 145.5,54.1667 145.5,60.5C 147.833,60.5 150.167,60.5 152.5,60.5C 152.5,62.1667 152.5,63.8333 152.5,65.5C 148.833,65.5 145.167,65.5 141.5,65.5C 141.5,57.5 141.5,49.5 141.5,41.5 Z"/></g>
<g><path style="opacity:0.95" fill="#0c6b3a" d="M 26.5,45.5 C 28.8333,45.5 31.1667,45.5 33.5,45.5C 33.5,47.8333 33.5,50.1667 33.5,52.5C 31.1667,52.5 28.8333,52.5 26.5,52.5C 26.5,50.1667 26.5,47.8333 26.5,45.5 Z"/></g>
<g><path style="opacity:1" fill="#116f3a" d="M 180.5,45.5 C 184.167,45.5 187.833,45.5 191.5,45.5C 191.5,47.8333 191.5,50.1667 191.5,52.5C 187.833,52.5 184.167,52.5 180.5,52.5C 180.5,50.1667 180.5,47.8333 180.5,45.5 Z"/></g>
<g><path style="opacity:1" fill="#d6e3d7" d="M 156.5,42.5 C 170.99,41.504 185.657,41.1707 200.5,41.5C 200.5,42.8333 200.5,44.1667 200.5,45.5C 198.833,45.5 197.167,45.5 195.5,45.5C 195.5,47.8333 195.5,50.1667 195.5,52.5C 197.167,52.5 198.833,52.5 200.5,52.5C 200.5,53.8333 200.5,55.1667 200.5,56.5C 196.5,56.5 192.5,56.5 188.5,56.5C 188.5,58.8333 188.5,61.1667 188.5,63.5C 192.5,63.5 196.5,63.5 200.5,63.5C 200.5,64.5 200.5,65.5 200.5,66.5C 185.833,66.5 171.167,66.5 156.5,66.5C 156.5,65.5 156.5,64.5 156.5,63.5C 160.833,63.5 165.167,63.5 169.5,63.5C 169.5,61.1667 169.5,58.8333 169.5,56.5C 164.968,56.8182 160.634,56.4849 156.5,55.5C 166.167,55.5 175.833,55.5 185.5,55.5C 186.167,64.8333 186.833,64.8333 187.5,55.5C 191.226,55.8226 194.893,55.4892 198.5,54.5C 192.346,53.8332 186.346,53.1666 180.5,52.5C 184.167,52.5 187.833,52.5 191.5,52.5C 191.5,50.1667 191.5,47.8333 191.5,45.5C 187.833,45.5 184.167,45.5 180.5,45.5C 186.346,44.8334 192.346,44.1668 198.5,43.5C 184.516,42.5008 170.516,42.1674 156.5,42.5 Z"/></g>
<g><path style="opacity:1" fill="#0b6d36" d="M 200.5,45.5 C 200.5,47.8333 200.5,50.1667 200.5,52.5C 198.833,52.5 197.167,52.5 195.5,52.5C 195.5,50.1667 195.5,47.8333 195.5,45.5C 197.167,45.5 198.833,45.5 200.5,45.5 Z"/></g>
<g><path style="opacity:1" fill="#d6e2d7" d="M 26.5,41.5 C 41.5,41.5 56.5,41.5 71.5,41.5C 71.5,42.8333 71.5,44.1667 71.5,45.5C 69.8333,45.5 68.1667,45.5 66.5,45.5C 66.5,47.8333 66.5,50.1667 66.5,52.5C 68.1667,52.5 69.8333,52.5 71.5,52.5C 71.7373,53.791 71.404,54.791 70.5,55.5C 63.8667,54.1696 56.8667,53.5029 49.5,53.5C 42.5,53.8333 35.5,54.1667 28.5,54.5C 37.9914,55.1667 47.3247,55.8334 56.5,56.5C 52.5,56.5 48.5,56.5 44.5,56.5C 44.5,58.8333 44.5,61.1667 44.5,63.5C 43.8347,61.3021 43.1681,58.9688 42.5,56.5C 41.8319,58.9688 41.1653,61.3021 40.5,63.5C 40.5,61.1667 40.5,58.8333 40.5,56.5C 35.8333,56.5 31.1667,56.5 26.5,56.5C 26.5,55.1667 26.5,53.8333 26.5,52.5C 28.8333,52.5 31.1667,52.5 33.5,52.5C 33.5,50.1667 33.5,47.8333 33.5,45.5C 31.1667,45.5 28.8333,45.5 26.5,45.5C 26.5,44.1667 26.5,42.8333 26.5,41.5 Z"/></g>
<g><path style="opacity:1" fill="#126f3a" d="M 52.5,45.5 C 56.1667,45.5 59.8333,45.5 63.5,45.5C 63.5,47.8333 63.5,50.1667 63.5,52.5C 59.8333,52.5 56.1667,52.5 52.5,52.5C 52.5,50.1667 52.5,47.8333 52.5,45.5 Z"/></g>
<g><path style="opacity:1" fill="#0a6d37" d="M 37.5,45.5 C 41.1667,45.5 44.8333,45.5 48.5,45.5C 48.5,47.8333 48.5,50.1667 48.5,52.5C 44.8333,52.5 41.1667,52.5 37.5,52.5C 37.5,50.1667 37.5,47.8333 37.5,45.5 Z"/></g>
<g><path style="opacity:1" fill="#f8faf8" d="M 156.5,42.5 C 170.516,42.1674 184.516,42.5008 198.5,43.5C 192.346,44.1668 186.346,44.8334 180.5,45.5C 180.5,47.8333 180.5,50.1667 180.5,52.5C 186.346,53.1666 192.346,53.8332 198.5,54.5C 194.893,55.4892 191.226,55.8226 187.5,55.5C 186.833,64.8333 186.167,64.8333 185.5,55.5C 175.833,55.5 166.167,55.5 156.5,55.5C 156.5,54.5 156.5,53.5 156.5,52.5C 158.5,52.5 160.5,52.5 162.5,52.5C 162.5,50.1667 162.5,47.8333 162.5,45.5C 160.5,45.5 158.5,45.5 156.5,45.5C 156.5,44.5 156.5,43.5 156.5,42.5 Z"/></g>
<g><path style="opacity:1" fill="#15703c" d="M 165.5,45.5 C 169.5,45.5 173.5,45.5 177.5,45.5C 177.5,47.8333 177.5,50.1667 177.5,52.5C 173.5,52.5 169.5,52.5 165.5,52.5C 165.5,50.1667 165.5,47.8333 165.5,45.5 Z"/></g>
<g><path style="opacity:0.977" fill="#166f3c" d="M 26.5,56.5 C 31.1667,56.5 35.8333,56.5 40.5,56.5C 40.5,58.8333 40.5,61.1667 40.5,63.5C 35.8333,63.5 31.1667,63.5 26.5,63.5C 26.5,61.1667 26.5,58.8333 26.5,56.5 Z"/></g>
<g><path style="opacity:1" fill="#0e6d37" d="M 173.5,56.5 C 177.167,56.5 180.833,56.5 184.5,56.5C 184.5,58.8333 184.5,61.1667 184.5,63.5C 180.833,63.5 177.167,63.5 173.5,63.5C 173.5,61.1667 173.5,58.8333 173.5,56.5 Z"/></g>
<g><path style="opacity:1" fill="#0e6d37" d="M 200.5,56.5 C 200.5,58.8333 200.5,61.1667 200.5,63.5C 196.5,63.5 192.5,63.5 188.5,63.5C 188.5,61.1667 188.5,58.8333 188.5,56.5C 192.5,56.5 196.5,56.5 200.5,56.5 Z"/></g>
<g><path style="opacity:1" fill="#f8faf8" d="M 70.5,55.5 C 66.8333,55.5 63.1667,55.5 59.5,55.5C 59.5,58.1667 59.5,60.8333 59.5,63.5C 63.5,63.5 67.5,63.5 71.5,63.5C 71.5,64.5 71.5,65.5 71.5,66.5C 56.8333,66.5 42.1667,66.5 27.5,66.5C 27.1667,66.5 26.8333,66.5 26.5,66.5C 26.5,65.5 26.5,64.5 26.5,63.5C 31.1667,63.5 35.8333,63.5 40.5,63.5C 41.1653,61.3021 41.8319,58.9688 42.5,56.5C 43.1681,58.9688 43.8347,61.3021 44.5,63.5C 48.5,63.5 52.5,63.5 56.5,63.5C 56.5,61.1667 56.5,58.8333 56.5,56.5C 47.3247,55.8334 37.9914,55.1667 28.5,54.5C 35.5,54.1667 42.5,53.8333 49.5,53.5C 56.8667,53.5029 63.8667,54.1696 70.5,55.5 Z"/></g>
<g><path style="opacity:1" fill="#1a713c" d="M 56.5,56.5 C 56.5,58.8333 56.5,61.1667 56.5,63.5C 52.5,63.5 48.5,63.5 44.5,63.5C 44.5,61.1667 44.5,58.8333 44.5,56.5C 48.5,56.5 52.5,56.5 56.5,56.5 Z"/></g>
<g><path style="opacity:1" fill="#e4c016" d="M 121.5,80.5 C 121.5,81.5 121.5,82.5 121.5,83.5C 121.5,84.5 121.5,85.5 121.5,86.5C 123.884,86.4433 126.218,86.7766 128.5,87.5C 130.038,87.5466 131.038,86.8799 131.5,85.5C 131.833,84.8333 132.167,84.1667 132.5,83.5C 133.145,82.1882 134.145,81.1882 135.5,80.5C 139.668,82.7497 143.668,85.2497 147.5,88C 146.695,89.1127 146.028,90.2794 145.5,91.5C 145.167,92.1667 144.833,92.8333 144.5,93.5C 143.427,94.2506 143.26,95.2506 144,96.5C 146,98.5 148,100.5 150,102.5C 150.995,101.934 151.828,101.267 152.5,100.5C 153.5,100.167 154.167,99.5 154.5,98.5C 155.583,98.4606 156.583,98.1272 157.5,97.5C 160.05,101.549 162.383,105.716 164.5,110C 164.361,111.301 163.695,112.134 162.5,112.5C 161.833,112.833 161.167,113.167 160.5,113.5C 158.748,113.418 157.748,114.251 157.5,116C 158.687,118.724 159.353,121.557 159.5,124.5C 160.5,124.5 161.5,124.5 162.5,124.5C 163.5,124.5 164.5,124.5 165.5,124.5C 166.833,124.5 168.167,124.5 169.5,124.5C 169.666,129.179 169.499,133.845 169,138.5C 167.989,139.337 166.822,139.67 165.5,139.5C 164.5,139.5 163.5,139.5 162.5,139.5C 161.5,139.5 160.5,139.5 159.5,139.5C 159.538,142.181 158.871,144.681 157.5,147C 157.748,148.749 158.748,149.582 160.5,149.5C 160.833,150.5 161.5,151.167 162.5,151.5C 163.695,151.866 164.361,152.699 164.5,154C 163.116,157.876 161.116,161.376 158.5,164.5C 157.192,165.626 155.858,165.626 154.5,164.5C 153.833,164.167 153.167,163.833 152.5,163.5C 152.189,162.522 151.522,161.855 150.5,161.5C 146.809,163.649 144.642,166.649 144,170.5C 144.383,171.056 144.883,171.389 145.5,171.5C 145.5,172.167 145.833,172.5 146.5,172.5C 146.539,173.583 146.873,174.583 147.5,175.5C 143.794,178.777 139.627,181.443 135,183.5C 133.955,182.627 133.122,181.627 132.5,180.5C 132.167,179.833 131.833,179.167 131.5,178.5C 131.038,177.12 130.038,176.453 128.5,176.5C 126.432,176.967 124.432,177.634 122.5,178.5C 121.702,178.957 121.369,179.624 121.5,180.5C 121.5,181.5 121.5,182.5 121.5,183.5C 121.67,184.822 121.337,185.989 120.5,187C 115.511,187.499 110.511,187.666 105.5,187.5C 105.5,186.167 105.5,184.833 105.5,183.5C 105.5,182.5 105.5,181.5 105.5,180.5C 103.631,178.348 101.131,177.014 98,176.5C 96.699,176.639 95.8656,177.305 95.5,178.5C 94.8902,179.391 94.5569,180.391 94.5,181.5C 93.5178,182.141 92.5178,182.807 91.5,183.5C 87.1189,181.316 83.1189,178.65 79.5,175.5C 80.1272,174.583 80.4606,173.583 80.5,172.5C 81.5,172.167 82.1667,171.5 82.5,170.5C 83.3029,169.577 83.4696,168.577 83,167.5C 81.1667,165.667 79.3333,163.833 77.5,162C 76.0024,161.415 75.0024,161.915 74.5,163.5C 73.8333,163.833 73.1667,164.167 72.5,164.5C 70.0614,165.9 68.2281,165.233 67,162.5C 65.5,159.5 64,156.5 62.5,153.5C 62.8555,152.478 63.5222,151.811 64.5,151.5C 65.5,151.167 66.1667,150.5 66.5,149.5C 68.2517,149.582 69.2517,148.749 69.5,147C 68.5212,144.567 67.8545,142.067 67.5,139.5C 66.5,139.5 65.5,139.5 64.5,139.5C 63.5,139.5 62.5,139.5 61.5,139.5C 60.1667,139.5 58.8333,139.5 57.5,139.5C 57.5,134.5 57.5,129.5 57.5,124.5C 58.8333,124.5 60.1667,124.5 61.5,124.5C 62.5,124.5 63.5,124.5 64.5,124.5C 65.5,124.5 66.5,124.5 67.5,124.5C 67.9595,121.123 68.6261,117.789 69.5,114.5C 68.5,114.5 67.5,114.5 66.5,114.5C 66.1667,113.5 65.5,112.833 64.5,112.5C 63.3054,112.134 62.6387,111.301 62.5,110C 64.5863,105.581 67.0863,101.415 70,97.5C 70.6708,98.2524 71.5041,98.5858 72.5,98.5C 72.9731,99.9063 73.9731,100.573 75.5,100.5C 75.7828,101.289 76.2828,101.956 77,102.5C 79,100.5 81,98.5 83,96.5C 83.7401,95.2506 83.5735,94.2506 82.5,93.5C 82.1667,92.8333 81.8333,92.1667 81.5,91.5C 78.9824,89.6434 78.9824,87.8101 81.5,86C 84.7064,83.966 88.0397,82.1326 91.5,80.5C 92.5178,81.1925 93.5178,81.8592 94.5,82.5C 94.5569,83.609 94.8902,84.609 95.5,85.5C 95.8656,86.6946 96.699,87.3613 98,87.5C 100.135,86.8729 102.302,86.3729 104.5,86C 105.252,85.3292 105.586,84.4959 105.5,83.5C 105.5,82.5 105.5,81.5 105.5,80.5C 105.33,79.1779 105.663,78.0113 106.5,77C 111.489,76.5007 116.489,76.3341 121.5,76.5C 121.5,77.8333 121.5,79.1667 121.5,80.5 Z"/></g>
<g><path style="opacity:1" fill="#dfe8dd" d="M 121.5,80.5 C 125.223,81.2967 128.89,82.2967 132.5,83.5C 132.167,84.1667 131.833,84.8333 131.5,85.5C 128.302,84.2132 124.969,83.5465 121.5,83.5C 121.5,82.5 121.5,81.5 121.5,80.5 Z"/></g>
<g><path style="opacity:1" fill="#dfe8dd" d="M 105.5,80.5 C 105.5,81.5 105.5,82.5 105.5,83.5C 101.963,83.3107 98.6297,83.9774 95.5,85.5C 94.8902,84.609 94.5569,83.609 94.5,82.5C 98.1667,81.8333 101.833,81.1667 105.5,80.5 Z"/></g>
<g><path style="opacity:1" fill="#2c773c" d="M 105.5,83.5 C 105.586,84.4959 105.252,85.3292 104.5,86C 102.302,86.3729 100.135,86.8729 98,87.5C 96.699,87.3613 95.8656,86.6946 95.5,85.5C 98.6297,83.9774 101.963,83.3107 105.5,83.5 Z"/></g>
<g><path style="opacity:1" fill="#2b7538" d="M 121.5,83.5 C 124.969,83.5465 128.302,84.2132 131.5,85.5C 131.038,86.8799 130.038,87.5466 128.5,87.5C 126.218,86.7766 123.884,86.4433 121.5,86.5C 121.5,85.5 121.5,84.5 121.5,83.5 Z"/></g>
<g><path style="opacity:1" fill="#6a6458" d="M 113.5,87.5 C 114.5,87.5 115.5,87.5 116.5,87.5C 116.5,90.8333 116.5,94.1667 116.5,97.5C 113.041,96.564 110.207,94.564 108,91.5C 107.808,93.5767 107.308,95.5767 106.5,97.5C 105.068,94.6727 104.401,91.6727 104.5,88.5C 108.147,88.6216 110.981,90.2882 113,93.5C 113.495,91.5273 113.662,89.5273 113.5,87.5 Z"/></g>
<g><path style="opacity:1" fill="#6b6458" d="M 96.5,90.5 C 98.1992,90.3398 99.8659,90.5065 101.5,91C 99.9984,91.5831 98.6651,92.4164 97.5,93.5C 99.1173,93.6694 100.784,94.0028 102.5,94.5C 101.5,95.1667 100.5,95.8333 99.5,96.5C 100.833,97.1667 102.167,97.8333 103.5,98.5C 101.293,99.6348 98.9599,100.301 96.5,100.5C 96.1336,98.095 95.4669,95.7617 94.5,93.5C 94.9424,92.2613 95.6091,91.2613 96.5,90.5 Z"/></g>
<g><path style="opacity:1" fill="#e7ede4" d="M 145.5,91.5 C 148.767,93.4273 151.767,95.7606 154.5,98.5C 154.167,99.5 153.5,100.167 152.5,100.5C 150.477,97.4797 147.81,95.1464 144.5,93.5C 144.833,92.8333 145.167,92.1667 145.5,91.5 Z"/></g>
<g><path style="opacity:1" fill="#d7e3d6" d="M 81.5,91.5 C 81.8333,92.1667 82.1667,92.8333 82.5,93.5C 79.8605,95.4728 77.5272,97.8061 75.5,100.5C 73.9731,100.573 72.9731,99.9063 72.5,98.5C 75.2327,95.7606 78.2327,93.4273 81.5,91.5 Z"/></g>
<g><path style="opacity:1" fill="#277438" d="M 82.5,93.5 C 83.5735,94.2506 83.7401,95.2506 83,96.5C 81,98.5 79,100.5 77,102.5C 76.2828,101.956 75.7828,101.289 75.5,100.5C 77.5272,97.8061 79.8605,95.4728 82.5,93.5 Z"/></g>
<g><path style="opacity:1" fill="#726956" d="M 119.5,88.5 C 120.5,88.5 121.5,88.5 122.5,88.5C 122.536,98.8486 126.202,100.182 133.5,92.5C 134.478,92.9767 135.311,93.6433 136,94.5C 136.824,97.8823 136.657,101.216 135.5,104.5C 134.246,102.462 132.579,100.796 130.5,99.5C 129.707,99.9312 128.873,100.265 128,100.5C 124.974,99.1282 121.807,98.4615 118.5,98.5C 118.833,95.1667 119.167,91.8333 119.5,88.5 Z"/></g>
<g><path style="opacity:1" fill="#377b3f" d="M 144.5,93.5 C 147.81,95.1464 150.477,97.4797 152.5,100.5C 151.828,101.267 150.995,101.934 150,102.5C 148,100.5 146,98.5 144,96.5C 143.26,95.2506 143.427,94.2506 144.5,93.5 Z"/></g>
<g><path style="opacity:1" fill="#6a6458" d="M 89.5,94.5 C 90.3764,94.3691 91.0431,94.7025 91.5,95.5C 90.2634,96.2807 89.2634,97.2807 88.5,98.5C 90.1667,98.5 91.8333,98.5 93.5,98.5C 92.7366,99.7193 91.7366,100.719 90.5,101.5C 92.1667,101.5 93.8333,101.5 95.5,101.5C 94.0552,103.063 92.3885,104.396 90.5,105.5C 87.9763,103.81 85.9763,101.643 84.5,99C 86.2395,97.483 87.9062,95.983 89.5,94.5 Z"/></g>
<g><path style="opacity:1" fill="#187038" d="M 106.5,100.5 C 125.172,98.5798 138.005,106.246 145,123.5C 147.714,141.579 140.881,154.412 124.5,162C 104.576,167.288 90.7429,160.454 83,141.5C 78.8521,120.843 86.6854,107.176 106.5,100.5 Z"/></g>
<g><path style="opacity:1" fill="#6c6558" d="M 141.5,99.5 C 143.017,99.5106 144.184,100.177 145,101.5C 145.333,104.167 145.667,106.833 146,109.5C 148.262,106.903 150.095,107.07 151.5,110C 143.799,117.008 140.632,115.175 142,104.5C 140.981,105.687 139.814,106.687 138.5,107.5C 138.167,107 137.833,106.5 137.5,106C 139.043,103.958 140.376,101.792 141.5,99.5 Z"/></g>
<g><path style="opacity:1" fill="#f5f6f5" d="M 109.5,106.5 C 128.885,106.719 138.718,116.386 139,135.5C 134.869,151.154 124.702,158.321 108.5,157C 92.6993,151.917 86.1993,141.084 89,124.5C 92.7255,114.898 99.5588,108.898 109.5,106.5 Z"/></g>
<g><path style="opacity:1" fill="#726956" d="M 81.5,102.5 C 83.9118,102.694 84.9118,104.027 84.5,106.5C 85.9778,106.238 87.3112,106.571 88.5,107.5C 86.8507,108.988 84.8507,109.988 82.5,110.5C 82.9767,111.478 83.6433,112.311 84.5,113C 83.9535,113.925 83.2868,114.758 82.5,115.5C 79.9906,114.079 77.6572,112.412 75.5,110.5C 77.1712,107.508 79.1712,104.841 81.5,102.5 Z"/></g>
<g><path style="opacity:1" fill="#2e773c" d="M 160.5,113.5 C 161.919,117.015 162.586,120.681 162.5,124.5C 161.5,124.5 160.5,124.5 159.5,124.5C 159.353,121.557 158.687,118.724 157.5,116C 157.748,114.251 158.748,113.418 160.5,113.5 Z"/></g>
<g><path style="opacity:1" fill="#2b773e" d="M 66.5,114.5 C 67.5,114.5 68.5,114.5 69.5,114.5C 68.6261,117.789 67.9595,121.123 67.5,124.5C 66.5,124.5 65.5,124.5 64.5,124.5C 64.3107,120.963 64.9774,117.63 66.5,114.5 Z"/></g>
<g><path style="opacity:1" fill="#e3e9dd" d="M 64.5,112.5 C 65.5,112.833 66.1667,113.5 66.5,114.5C 64.9774,117.63 64.3107,120.963 64.5,124.5C 63.5,124.5 62.5,124.5 61.5,124.5C 62.1876,120.416 63.1876,116.416 64.5,112.5 Z"/></g>
<g><path style="opacity:1" fill="#e3eadd" d="M 162.5,112.5 C 164.004,116.348 165.004,120.348 165.5,124.5C 164.5,124.5 163.5,124.5 162.5,124.5C 162.586,120.681 161.919,117.015 160.5,113.5C 161.167,113.167 161.833,112.833 162.5,112.5 Z"/></g>
<g><path style="opacity:1" fill="#6d6657" d="M 151.5,113.5 C 154.761,116.056 156.428,119.556 156.5,124C 155.609,130.012 153.109,130.845 149,126.5C 147.829,123.65 146.662,120.816 145.5,118C 147.747,116.723 149.747,115.223 151.5,113.5 Z"/></g>
<g><path style="opacity:1" fill="#e5bd1b" d="M 150.5,118.5 C 151.5,118.5 152.5,118.5 153.5,118.5C 153.5,120.833 153.5,123.167 153.5,125.5C 151.408,125.439 149.908,124.439 149,122.5C 148.516,120.807 149.016,119.473 150.5,118.5 Z"/></g>
<g><path style="opacity:1" fill="#6d6657" d="M 73.5,114.5 C 74.3764,114.369 75.0431,114.702 75.5,115.5C 73.8163,118.612 73.1497,121.946 73.5,125.5C 77.1646,125.183 78.6646,123.183 78,119.5C 77.0853,120.328 76.4186,121.328 76,122.5C 75.3854,119.955 75.8854,117.622 77.5,115.5C 81.2527,119.966 80.9194,124.466 76.5,129C 72.294,129.835 70.294,128.002 70.5,123.5C 70.9091,120.273 71.9091,117.273 73.5,114.5 Z"/></g>
<g><path style="opacity:1" fill="#181819" d="M 101.5,114.5 C 106.426,114.932 106.76,116.432 102.5,119C 105.579,123.249 109.246,127.083 113.5,130.5C 115.817,128.684 117.984,126.684 120,124.5C 120.743,121.489 122.076,118.822 124,116.5C 125.02,122.607 126.854,122.94 129.5,117.5C 131.665,123.177 129.665,126.011 123.5,126C 121.167,128.333 118.833,130.667 116.5,133C 120.633,136.131 124.466,139.631 128,143.5C 128.833,146.667 127.667,147.833 124.5,147C 120.985,143.318 117.318,139.818 113.5,136.5C 108.719,139.438 105.719,143.605 104.5,149C 104.167,149.167 103.833,149.333 103.5,149.5C 102.548,147.955 102.215,146.288 102.5,144.5C 99.6118,144.22 98.1118,145.553 98,148.5C 95.8546,145.568 96.3546,143.068 99.5,141C 104.541,140.301 108.208,137.635 110.5,133C 107.308,129.474 103.808,126.307 100,123.5C 99.228,123.645 98.5613,123.978 98,124.5C 97.6667,126.5 97.3333,128.5 97,130.5C 94.948,124.157 96.448,118.824 101.5,114.5 Z"/></g>
<g><path style="opacity:1" fill="#2d763b" d="M 64.5,139.5 C 65.5,139.5 66.5,139.5 67.5,139.5C 67.8545,142.067 68.5212,144.567 69.5,147C 69.2517,148.749 68.2517,149.582 66.5,149.5C 65.2132,146.302 64.5465,142.969 64.5,139.5 Z"/></g>
<g><path style="opacity:1" fill="#257438" d="M 162.5,139.5 C 162.453,142.969 161.787,146.302 160.5,149.5C 158.748,149.582 157.748,148.749 157.5,147C 158.871,144.681 159.538,142.181 159.5,139.5C 160.5,139.5 161.5,139.5 162.5,139.5 Z"/></g>
<g><path style="opacity:1" fill="#e1e9dd" d="M 162.5,139.5 C 163.5,139.5 164.5,139.5 165.5,139.5C 164.812,143.584 163.812,147.584 162.5,151.5C 161.5,151.167 160.833,150.5 160.5,149.5C 161.787,146.302 162.453,142.969 162.5,139.5 Z"/></g>
<g><path style="opacity:1" fill="#347733" d="M 78.5,139.5 C 79.6491,139.791 80.3158,140.624 80.5,142C 80.3333,142.833 80.1667,143.667 80,144.5C 77.4824,143.939 74.9824,143.606 72.5,143.5C 74.8493,142.457 76.8493,141.124 78.5,139.5 Z"/></g>
<g><path style="opacity:1" fill="#e0e8db" d="M 61.5,139.5 C 62.5,139.5 63.5,139.5 64.5,139.5C 64.5465,142.969 65.2132,146.302 66.5,149.5C 66.1667,150.5 65.5,151.167 64.5,151.5C 63.1906,147.596 62.1906,143.596 61.5,139.5 Z"/></g>
<g><path style="opacity:1" fill="#307633" d="M 145.5,147.5 C 145.468,142.787 147.801,141.287 152.5,143C 153.435,145.381 153.768,147.881 153.5,150.5C 150.594,150.043 147.928,149.043 145.5,147.5 Z"/></g>
<g><path style="opacity:1" fill="#dabc15" d="M 147.5,144.5 C 149.665,144.116 151.332,144.783 152.5,146.5C 149.83,148.09 148.163,147.423 147.5,144.5 Z"/></g>
<g><path style="opacity:1" fill="#3e7b32" d="M 145.5,147.5 C 145.351,148.552 145.517,149.552 146,150.5C 147.918,151.542 149.751,152.708 151.5,154C 151,154.5 150.5,155 150,155.5C 148.027,154.36 146.193,153.027 144.5,151.5C 143.914,151.709 143.414,152.043 143,152.5C 142.751,150.332 143.584,148.665 145.5,147.5 Z"/></g>
<g><path style="opacity:1" fill="#347832" d="M 139.5,155.5 C 139.735,154.903 140.235,154.57 141,154.5C 142.626,155.289 144.126,156.289 145.5,157.5C 149.279,156.794 149.446,157.794 146,160.5C 143.672,159.001 141.505,157.334 139.5,155.5 Z"/></g>
<g><path style="opacity:1" fill="#437d31" d="M 136.5,157.5 C 137.404,158.209 137.737,159.209 137.5,160.5C 138.552,160.351 139.552,160.517 140.5,161C 139.398,163.391 140.064,163.891 142.5,162.5C 143.711,163.274 143.711,164.107 142.5,165C 140.99,165.85 139.49,166.683 138,167.5C 136.838,166.813 135.672,166.647 134.5,167C 135.711,167.893 135.711,168.726 134.5,169.5C 133.396,167.611 132.063,165.945 130.5,164.5C 130.5,166.833 130.5,169.167 130.5,171.5C 129.343,169.322 128.01,167.322 126.5,165.5C 126.167,166 125.833,166.5 125.5,167C 126.167,168.667 126.833,170.333 127.5,172C 127.167,172.5 126.833,173 126.5,173.5C 125.186,172.687 124.019,171.687 123,170.5C 122.51,171.793 122.343,173.127 122.5,174.5C 120.167,174.5 117.833,174.5 115.5,174.5C 115.5,171.833 115.5,169.167 115.5,166.5C 117.262,166.643 118.929,166.309 120.5,165.5C 121.892,166.605 123.059,167.939 124,169.5C 124.595,168.101 124.428,166.768 123.5,165.5C 128.39,163.564 132.724,160.897 136.5,157.5 Z"/></g>
<g><path style="opacity:1" fill="#31783b" d="M 82.5,170.5 C 79.1898,168.854 76.5232,166.52 74.5,163.5C 75.0024,161.915 76.0024,161.415 77.5,162C 79.3333,163.833 81.1667,165.667 83,167.5C 83.4696,168.577 83.3029,169.577 82.5,170.5 Z"/></g>
<g><path style="opacity:1" fill="#438042" d="M 152.5,163.5 C 150.167,166.167 147.833,168.833 145.5,171.5C 144.883,171.389 144.383,171.056 144,170.5C 144.642,166.649 146.809,163.649 150.5,161.5C 151.522,161.855 152.189,162.522 152.5,163.5 Z"/></g>
<g><path style="opacity:1" fill="#447d31" d="M 78.5,145.5 C 80.6348,145.147 81.9681,145.98 82.5,148C 81.1041,149.756 79.4374,151.256 77.5,152.5C 79.8558,153.294 82.1891,152.961 84.5,151.5C 84.9646,154.323 83.9646,156.823 81.5,159C 82.1667,159.667 82.8333,159.667 83.5,159C 84.6853,157.647 86.0186,156.48 87.5,155.5C 88.5,156.5 89.5,157.5 90.5,158.5C 89.0909,163.286 89.7576,163.62 92.5,159.5C 93.5,160.5 94.5,161.5 95.5,162.5C 93.7892,164.24 92.9558,166.24 93,168.5C 94.3076,166.359 95.8076,164.359 97.5,162.5C 98.2811,163.729 98.7811,165.062 99,166.5C 100,163.833 101,163.833 102,166.5C 103.494,165.253 104.994,165.253 106.5,166.5C 102.594,167.401 101.76,169.401 104,172.5C 104.617,171.551 104.451,170.718 103.5,170C 104.448,169.517 105.448,169.351 106.5,169.5C 106.716,174.587 104.882,175.587 101,172.5C 100.667,171.5 100.333,170.5 100,169.5C 99.6322,170.91 98.7989,171.91 97.5,172.5C 96.6922,170.577 96.1922,168.577 96,166.5C 95.8038,168.286 94.9705,169.619 93.5,170.5C 89.3968,169.374 87.2301,166.708 87,162.5C 86.3109,163.357 85.4776,164.023 84.5,164.5C 81.5623,162.267 80.0623,159.6 80,156.5C 76.0013,156.022 74.8346,154.022 76.5,150.5C 75.5,149.833 74.5,149.167 73.5,148.5C 75.1446,147.304 76.8113,146.304 78.5,145.5 Z"/></g>
<g><path style="opacity:1" fill="#f0f3ee" d="M 152.5,163.5 C 153.167,163.833 153.833,164.167 154.5,164.5C 152.167,167.5 149.5,170.167 146.5,172.5C 145.833,172.5 145.5,172.167 145.5,171.5C 147.833,168.833 150.167,166.167 152.5,163.5 Z"/></g>
<g><path style="opacity:1" fill="#e7ede5" d="M 74.5,163.5 C 76.5232,166.52 79.1898,168.854 82.5,170.5C 82.1667,171.5 81.5,172.167 80.5,172.5C 77.5,170.167 74.8333,167.5 72.5,164.5C 73.1667,164.167 73.8333,163.833 74.5,163.5 Z"/></g>
<g><path style="opacity:1" fill="#dfbe14" d="M 117.5,167.5 C 120.084,168.048 121.084,169.715 120.5,172.5C 117.203,172.671 116.869,172.005 119.5,170.5C 118.388,169.735 117.721,168.735 117.5,167.5 Z"/></g>
<g><path style="opacity:1" fill="#297533" d="M 111.5,166.5 C 115.5,167.167 115.5,167.833 111.5,168.5C 111.5,170.167 111.5,171.833 111.5,173.5C 112.675,173.281 113.675,173.614 114.5,174.5C 110.077,175.214 108.577,173.214 110,168.5C 110.717,167.956 111.217,167.289 111.5,166.5 Z"/></g>
<g><path style="opacity:1" fill="#21733c" d="M 105.5,180.5 C 101.963,180.689 98.6297,180.023 95.5,178.5C 95.8656,177.305 96.699,176.639 98,176.5C 101.131,177.014 103.631,178.348 105.5,180.5 Z"/></g>
<g><path style="opacity:1" fill="#21733a" d="M 131.5,178.5 C 128.321,179.793 124.988,180.46 121.5,180.5C 121.369,179.624 121.702,178.957 122.5,178.5C 124.432,177.634 126.432,176.967 128.5,176.5C 130.038,176.453 131.038,177.12 131.5,178.5 Z"/></g>
<g><path style="opacity:1" fill="#d9e4d9" d="M 95.5,178.5 C 98.6297,180.023 101.963,180.689 105.5,180.5C 105.5,181.5 105.5,182.5 105.5,183.5C 101.803,182.992 98.1359,182.326 94.5,181.5C 94.5569,180.391 94.8902,179.391 95.5,178.5 Z"/></g>
<g><path style="opacity:1" fill="#dce7dd" d="M 131.5,178.5 C 131.833,179.167 132.167,179.833 132.5,180.5C 129.039,182.128 125.372,183.128 121.5,183.5C 121.5,182.5 121.5,181.5 121.5,180.5C 124.988,180.46 128.321,179.793 131.5,178.5 Z"/></g>
</svg>
